<svg xmlns="http://www.w3.org/2000/svg" width="294.093" height="607.132" viewBox="0 0 294.093 607.132">
  <g id="Group_1169" data-name="Group 1169" transform="translate(-813 -3697)">
    <g id="Your_Weekly_Plan" transform="translate(817.437 3697)" fill="#fff9f7" stroke="#000" stroke-width="4">
      <rect width="285.105" height="607.132" rx="38.8" stroke="none"/>
      <rect x="2" y="2" width="281.105" height="603.132" rx="36.8" fill="none"/>
    </g>
    <g id="Union_35" data-name="Union 35" transform="translate(813 3777.784)">
      <path d="M4,142.225a4,4,0,0,1-4-4V101.851a4,4,0,0,1,4-4h.552v44.375Zm285.542-14.792V59.166h.552a4,4,0,0,1,4,4v60.269a4,4,0,0,1-4,4ZM4,87.611a4,4,0,0,1-4-4V47.236a4,4,0,0,1,4-4h.552V87.611ZM4,23.894a4,4,0,0,1-4-4V4A4,4,0,0,1,4,0h.552V23.894Z" stroke="none"/>
      <path d="M 4.551308631896973 142.2252044677734 L 3.999608755111694 142.2252044677734 C 1.791008830070496 142.2252044677734 8.789062121650204e-06 140.4342041015625 8.789062121650204e-06 138.2256011962891 L 8.789062121650204e-06 101.851203918457 C 8.789062121650204e-06 99.64170074462891 1.791008830070496 97.85070037841797 3.999608755111694 97.85070037841797 L 4.551308631896973 97.85070037841797 L 4.551308631896973 142.2252044677734 Z M 290.0934143066406 127.4337005615234 L 289.5417175292969 127.4337005615234 L 289.5417175292969 59.16600036621094 L 290.0934143066406 59.16600036621094 C 292.302001953125 59.16600036621094 294.093017578125 60.95700073242188 294.093017578125 63.16560363769531 L 294.093017578125 123.4341049194336 C 294.093017578125 125.6436004638672 292.302001953125 127.4337005615234 290.0934143066406 127.4337005615234 Z M 4.551308631896973 87.61050415039063 L 3.999608755111694 87.61050415039063 C 1.791008830070496 87.61050415039063 8.789062121650204e-06 85.82040405273438 8.789062121650204e-06 83.61090087890625 L 8.789062121650204e-06 47.23650360107422 C 8.789062121650204e-06 45.02700042724609 1.791008830070496 43.23690032958984 3.999608755111694 43.23690032958984 L 4.551308631896973 43.23690032958984 L 4.551308631896973 87.61050415039063 Z M 4.551308631896973 23.89410209655762 L 3.999608755111694 23.89410209655762 C 1.791008830070496 23.89410209655762 8.789062121650204e-06 22.10310173034668 8.789062121650204e-06 19.89360237121582 L 8.789062121650204e-06 3.999602317810059 C 8.789062121650204e-06 1.79100227355957 1.791008830070496 2.233886789326789e-06 3.999608755111694 2.233886789326789e-06 L 4.551308631896973 2.233886789326789e-06 L 4.551308631896973 23.89410209655762 Z" stroke="none" fill="#16161a"/>
    </g>
  </g>
</svg>
