<svg xmlns="http://www.w3.org/2000/svg" xmlns:xlink="http://www.w3.org/1999/xlink" width="435.105" height="757.132" viewBox="0 0 435.105 757.132">
  <defs>
    <filter id="Your_Weekly_Plan" x="0" y="0" width="435.105" height="757.132" filterUnits="userSpaceOnUse">
      <feOffset dx="20" dy="20" input="SourceAlpha"/>
      <feGaussianBlur stdDeviation="25" result="blur"/>
      <feFlood flood-color="#3a1e0c" flood-opacity="0.149"/>
      <feComposite operator="in" in2="blur"/>
      <feComposite in="SourceGraphic"/>
    </filter>
  </defs>
  <g id="Mobile" transform="translate(-1554.537 -189)">
    <g transform="matrix(1, 0, 0, 1, 1554.54, 189)" filter="url(#Your_Weekly_Plan)">
      <g id="Your_Weekly_Plan-2" data-name="Your_Weekly_Plan" transform="translate(55 55)" fill="#fff9f7" stroke="#000" stroke-width="4">
        <rect width="285.105" height="607.132" rx="38.8" stroke="none"/>
        <rect x="2" y="2" width="281.105" height="603.132" rx="36.8" fill="none"/>
      </g>
    </g>
    <path id="Union_35" data-name="Union 35" d="M4,142.225a4,4,0,0,1-4-4V101.851a4,4,0,0,1,4-4h.552v44.375Zm285.542-14.792V59.166h.552a4,4,0,0,1,4,4v60.269a4,4,0,0,1-4,4ZM4,87.611a4,4,0,0,1-4-4V47.236a4,4,0,0,1,4-4h.552V87.611ZM4,23.894a4,4,0,0,1-4-4V4A4,4,0,0,1,4,0h.552V23.894Z" transform="translate(1605.1 324.784)"/>
  </g>
</svg>
