<svg xmlns="http://www.w3.org/2000/svg" width="144.201" height="146.575" viewBox="0 0 144.201 146.575">
  <g id="Group_1171" data-name="Group 1171" transform="translate(-437.434 -1256.507)">
    <g id="Group_1175" data-name="Group 1175">
      <g id="Group_1170" data-name="Group 1170">
        <path id="Path_1287" data-name="Path 1287" d="M41.431,135.163c3.321-4.628,4.717-10.314,6.909-15.571s5.678-10.529,11.1-12.266,11.345.535,16.016,3.778,8.635,7.464,13.516,10.381c5.386,3.22,11.606,4.69,17.706,6.164s12.309,3.047,17.592,6.43,9.569,8.95,9.784,15.221c.246,7.186-4.751,13.515-10.34,18.038s-12.072,8.03-16.819,13.43c-4.851,5.514-7.5,12.558-11,19.015s-8.41,12.8-15.45,14.882a22.734,22.734,0,0,1-13.705-.748,63.715,63.715,0,0,1-12.39-6.341c-6.825-4.179-13.626-8.51-19.452-14S24.223,181.33,22.131,173.6s-1.153-16.477,3.57-22.937C30.059,144.709,37.128,141.161,41.431,135.163Z" transform="translate(432.922 1169.273)" fill="#ffecee"/>
      </g>
      <path id="Path_1288" data-name="Path 1288" d="M41.289,134.978c3.3-4.6,4.684-10.247,6.86-15.469s5.638-10.46,11.023-12.186,11.266.531,15.9,3.754,8.575,7.416,13.421,10.314c5.348,3.2,11.525,4.66,17.582,6.124s12.223,3.027,17.469,6.388,9.5,8.891,9.715,15.122c.244,7.139-4.718,13.427-10.267,17.921s-11.988,7.978-16.7,13.342c-4.817,5.478-7.452,12.477-10.924,18.892s-8.351,12.712-15.342,14.786a22.563,22.563,0,0,1-13.609-.743,63.255,63.255,0,0,1-12.3-6.3c-6.777-4.152-13.531-8.455-19.316-13.906s-10.6-12.17-12.677-19.845-1.145-16.369,3.545-22.787C30,144.461,37.016,140.937,41.289,134.978Z" transform="translate(331.649 1341.087) rotate(-68)" fill="none" stroke="#273437" stroke-width="1.5"/>
    </g>
    <g id="Group_1146" data-name="Group 1146" transform="translate(488 1310.343)">
      <g id="Group_1174" data-name="Group 1174">
        <path id="Path_1308" data-name="Path 1308" d="M23.592,43.312H19.72a2.283,2.283,0,0,1-2.247-1.931c-.122-.813-.239-1.649-.348-2.485a.245.245,0,0,0-.175-.209,17.586,17.586,0,0,1-4.009-1.661.247.247,0,0,0-.273.023c-.668.514-1.343,1.023-2,1.512a2.283,2.283,0,0,1-2.954-.223L4.974,35.6a2.283,2.283,0,0,1-.223-2.954c.49-.662,1-1.336,1.512-2a.247.247,0,0,0,.023-.273,17.584,17.584,0,0,1-1.661-4.009.246.246,0,0,0-.209-.175c-.834-.109-1.67-.226-2.485-.348A2.283,2.283,0,0,1,0,23.592V19.72a2.283,2.283,0,0,1,1.931-2.246c.815-.122,1.651-.239,2.485-.348a.245.245,0,0,0,.209-.175,17.585,17.585,0,0,1,1.661-4.009.247.247,0,0,0-.023-.273c-.512-.666-1.021-1.34-1.512-2a2.283,2.283,0,0,1,.223-2.954L7.712,4.974a2.283,2.283,0,0,1,2.954-.223c.661.489,1.336,1,2,1.512a.248.248,0,0,0,.273.023,17.582,17.582,0,0,1,4.009-1.661.246.246,0,0,0,.175-.209c.109-.836.226-1.672.348-2.485A2.283,2.283,0,0,1,19.72,0h3.872a2.283,2.283,0,0,1,2.247,1.931c.122.813.239,1.649.348,2.485a.246.246,0,0,0,.175.209A17.587,17.587,0,0,1,30.37,6.286a.247.247,0,0,0,.273-.023c.668-.514,1.343-1.023,2-1.512a2.283,2.283,0,0,1,2.954.223l2.738,2.738a2.283,2.283,0,0,1,.223,2.954c-.49.663-1,1.337-1.512,2a.247.247,0,0,0-.023.273,17.585,17.585,0,0,1,1.661,4.009.245.245,0,0,0,.209.175c.835.109,1.671.226,2.485.348a2.283,2.283,0,0,1,1.931,2.246v3.872a2.283,2.283,0,0,1-1.931,2.246c-.815.122-1.651.239-2.485.348a.246.246,0,0,0-.209.175,17.582,17.582,0,0,1-1.661,4.009.247.247,0,0,0,.023.273c.513.667,1.022,1.341,1.512,2a2.283,2.283,0,0,1-.223,2.954L35.6,38.338a2.283,2.283,0,0,1-2.954.223c-.661-.489-1.336-1-2-1.512a.248.248,0,0,0-.273-.023,17.58,17.58,0,0,1-4.009,1.661.246.246,0,0,0-.175.209c-.109.835-.226,1.671-.348,2.485A2.283,2.283,0,0,1,23.592,43.312Zm-10.767-8.34a2.258,2.258,0,0,1,1.116.3,15.559,15.559,0,0,0,3.547,1.47,2.264,2.264,0,0,1,1.643,1.9c.107.823.223,1.647.342,2.447a.248.248,0,0,0,.246.208h3.872a.248.248,0,0,0,.246-.208c.12-.8.235-1.625.342-2.447a2.264,2.264,0,0,1,1.643-1.9,15.564,15.564,0,0,0,3.547-1.47,2.265,2.265,0,0,1,2.5.179c.658.506,1.322,1.008,1.974,1.489a.249.249,0,0,0,.321-.027l2.738-2.738a.249.249,0,0,0,.027-.321c-.483-.652-.984-1.316-1.489-1.973a2.265,2.265,0,0,1-.179-2.505,15.563,15.563,0,0,0,1.47-3.547,2.264,2.264,0,0,1,1.9-1.643c.822-.107,1.645-.222,2.447-.342a.248.248,0,0,0,.208-.246V19.72a.248.248,0,0,0-.208-.246c-.8-.12-1.626-.235-2.448-.342a2.264,2.264,0,0,1-1.9-1.643,15.56,15.56,0,0,0-1.47-3.547,2.265,2.265,0,0,1,.179-2.5c.506-.657,1.007-1.321,1.489-1.974a.248.248,0,0,0-.027-.321L34.17,6.4a.248.248,0,0,0-.321-.027c-.651.482-1.315.983-1.973,1.489a2.265,2.265,0,0,1-2.5.179,15.565,15.565,0,0,0-3.547-1.47,2.264,2.264,0,0,1-1.643-1.9c-.107-.823-.223-1.647-.342-2.447a.248.248,0,0,0-.246-.208H19.72a.248.248,0,0,0-.246.207c-.12.8-.235,1.624-.342,2.448a2.264,2.264,0,0,1-1.643,1.9,15.559,15.559,0,0,0-3.547,1.47,2.265,2.265,0,0,1-2.5-.179c-.658-.507-1.322-1.008-1.974-1.489a.248.248,0,0,0-.321.027L6.4,9.142a.248.248,0,0,0-.027.321c.483.654.985,1.317,1.489,1.974a2.265,2.265,0,0,1,.179,2.5,15.558,15.558,0,0,0-1.47,3.547,2.264,2.264,0,0,1-1.9,1.643c-.821.107-1.645.222-2.447.342a.248.248,0,0,0-.208.246v3.872a.248.248,0,0,0,.208.246c.8.12,1.626.235,2.448.342a2.264,2.264,0,0,1,1.9,1.643,15.562,15.562,0,0,0,1.47,3.547,2.265,2.265,0,0,1-.179,2.5c-.506.658-1.007,1.322-1.489,1.974a.248.248,0,0,0,.027.321l2.738,2.738a.248.248,0,0,0,.321.027c.651-.482,1.315-.983,1.974-1.489A2.273,2.273,0,0,1,12.825,34.972Z"/>
        <path id="Path_1309" data-name="Path 1309" d="M154.267,163.669a9.4,9.4,0,1,1,9.4-9.4A9.412,9.412,0,0,1,154.267,163.669Zm0-16.78a7.379,7.379,0,1,0,7.379,7.379A7.387,7.387,0,0,0,154.267,146.889Z" transform="translate(-132.611 -132.611)"/>
      </g>
    </g>
  </g>
</svg>
