<svg xmlns="http://www.w3.org/2000/svg" width="144.201" height="146.575" viewBox="0 0 144.201 146.575">
  <g id="Group_1175" data-name="Group 1175" transform="translate(-437.434 -1256.507)">
    <g id="Group_1170" data-name="Group 1170">
      <path id="Path_1287" data-name="Path 1287" d="M41.431,135.163c3.321-4.628,4.717-10.314,6.909-15.571s5.678-10.529,11.1-12.266,11.345.535,16.016,3.778,8.635,7.464,13.516,10.381c5.386,3.22,11.606,4.69,17.706,6.164s12.309,3.047,17.592,6.43,9.569,8.95,9.784,15.221c.246,7.186-4.751,13.515-10.34,18.038s-12.072,8.03-16.819,13.43c-4.851,5.514-7.5,12.558-11,19.015s-8.41,12.8-15.45,14.882a22.734,22.734,0,0,1-13.705-.748,63.715,63.715,0,0,1-12.39-6.341c-6.825-4.179-13.626-8.51-19.452-14S24.223,181.33,22.131,173.6s-1.153-16.477,3.57-22.937C30.059,144.709,37.128,141.161,41.431,135.163Z" transform="translate(432.922 1169.273)" fill="#ffecee"/>
    </g>
    <path id="Path_1288" data-name="Path 1288" d="M41.289,134.978c3.3-4.6,4.684-10.247,6.86-15.469s5.638-10.46,11.023-12.186,11.266.531,15.9,3.754,8.575,7.416,13.421,10.314c5.348,3.2,11.525,4.66,17.582,6.124s12.223,3.027,17.469,6.388,9.5,8.891,9.715,15.122c.244,7.139-4.718,13.427-10.267,17.921s-11.988,7.978-16.7,13.342c-4.817,5.478-7.452,12.477-10.924,18.892s-8.351,12.712-15.342,14.786a22.563,22.563,0,0,1-13.609-.743,63.255,63.255,0,0,1-12.3-6.3c-6.777-4.152-13.531-8.455-19.316-13.906s-10.6-12.17-12.677-19.845-1.145-16.369,3.545-22.787C30,144.461,37.016,140.937,41.289,134.978Z" transform="translate(331.649 1341.087) rotate(-68)" fill="none" stroke="#273437" stroke-width="1.5"/>
  </g>
</svg>
